# xmcd
#
# Track frame offsets:
#	150
#	23305
#	39656
#	77526
#	104979
#	118706
#	139221
#	156811
#	181833
#	204213
#	232085
#	235164
#
# Disc length: 3765 seconds
#
# Revision: 0
# Processed by: cddbd v1.5.2PL0 Copyright (c) Steve Scherf et al.
# Submitted via: EasyCDDAExtractor 9.0.0.1
#
DISCID=960eb30c
DTITLE=The Low Country Messiahs - Biscuit Palace
DYEAR=2006
DGENRE=Blues
TTITLE0=Goofer Dust
TTITLE1=Church, I'm Fully Saved Today
TTITLE2=Milk White Horse
TTITLE3=Jesus, Make Up My Dying Bed
TTITLE4=Steeple on the House
TTITLE5=Bootlegger Blues
TTITLE6=Knitting Circle
TTITLE7=Resurrection of Gullah Jack
TTITLE8=Mourner's Bench
TTITLE9=Tijauna Bible
TTITLE10=Marriage of a Rural Maiden
TTITLE11=Neither Out Far Nor In Deep
EXTD=
EXTT0=
EXTT1=
EXTT2=
EXTT3=
EXTT4=
EXTT5=
EXTT6=
EXTT7=
EXTT8=
EXTT9=
EXTT10=
EXTT11=
PLAYORDER=
